HIERARCHY
ROOT Hips
{
	OFFSET 0.00000 0.00000 0.00000
	CHANNELS 6 Xposition Yposition Zposition Zrotation Yrotation Xrotation 
	JOINT LHipJoint
	{
		OFFSET 0 0 0
		CHANNELS 3 Zrotation Yrotation Xrotation
		JOINT LeftUpLeg
		{
			OFFSET 1.28858 -1.83292 1.03970
			CHANNELS 3 Zrotation Yrotation Xrotation
			JOINT LeftLeg
			{
				OFFSET 2.47846 -6.80952 0.00000
				CHANNELS 3 Zrotation Yrotation Xrotation
				JOINT LeftFoot
				{
					OFFSET 2.75274 -7.56311 0.00000
					CHANNELS 3 Zrotation Yrotation Xrotation
					JOINT LeftToeBase
					{
						OFFSET 0.12848 -0.35301 1.68223
						CHANNELS 3 Zrotation Yrotation Xrotation
						End Site
						{
							OFFSET 0.00000 -0.00000 0.87311
						}
					}
				}
			}
		}
	}
	JOINT RHipJoint
	{
		OFFSET 0 0 0
		CHANNELS 3 Zrotation Yrotation Xrotation
		JOINT RightUpLeg
		{
			OFFSET -1.31183 -1.83292 1.03970
			CHANNELS 3 Zrotation Yrotation Xrotation
			JOINT RightLeg
			{
				OFFSET -2.44740 -6.72417 0.00000
				CHANNELS 3 Zrotation Yrotation Xrotation
				JOINT RightFoot
				{
					OFFSET -2.67343 -7.34519 0.00000
					CHANNELS 3 Zrotation Yrotation Xrotation
					JOINT RightToeBase
					{
						OFFSET -0.16914 -0.46471 1.77626
						CHANNELS 3 Zrotation Yrotation Xrotation
						End Site
						{
							OFFSET -0.00000 -0.00000 0.92777
						}
					}
				}
			}
		}
	}
	JOINT LowerBack
	{
		OFFSET 0 0 0
		CHANNELS 3 Zrotation Yrotation Xrotation
		JOINT Spine
		{
			OFFSET 0.01249 2.14252 0.03842
			CHANNELS 3 Zrotation Yrotation Xrotation
			JOINT Spine1
			{
				OFFSET -0.02957 2.14199 -0.03751
				CHANNELS 3 Zrotation Yrotation Xrotation
				JOINT Neck
				{
					OFFSET 0 0 0
					CHANNELS 3 Zrotation Yrotation Xrotation
					JOINT Neck1
					{
						OFFSET -0.01678 1.65709 -0.05476
						CHANNELS 3 Zrotation Yrotation Xrotation
						JOINT Head
						{
							OFFSET 0.07912 1.58331 -0.11843
							CHANNELS 3 Zrotation Yrotation Xrotation
							End Site
							{
								OFFSET 0.03298 1.73940 -0.04271
							}
						}
					}
				}
				JOINT LeftShoulder
				{
					OFFSET 0 0 0
					CHANNELS 3 Zrotation Yrotation Xrotation
					JOINT LeftArm
					{
						OFFSET 3.39556 1.16496 0.08673
						CHANNELS 3 Zrotation Yrotation Xrotation
						JOINT LeftForeArm
						{
							OFFSET 5.23910 -0.00000 -0.00000
							CHANNELS 3 Zrotation Yrotation Xrotation
							JOINT LeftHand
							{
								OFFSET 3.31467 -0.00000 0.00000
								CHANNELS 3 Zrotation Yrotation Xrotation
								JOINT LeftFingerBase
								{
									OFFSET 0 0 0
									CHANNELS 3 Zrotation Yrotation Xrotation
									JOINT LeftHandIndex1
									{
										OFFSET 0.96590 -0.00000 0.00000
										CHANNELS 3 Zrotation Yrotation Xrotation
										End Site
										{
											OFFSET 0.77873 -0.00000 0.00000
										}
									}
								}
								JOINT LThumb
								{
									OFFSET 0 0 0
									CHANNELS 3 Zrotation Yrotation Xrotation
									End Site
									{
										OFFSET 0.79062 -0.00000 0.79062
									}
								}
							}
						}
					}
				}
				JOINT RightShoulder
				{
					OFFSET 0 0 0
					CHANNELS 3 Zrotation Yrotation Xrotation
					JOINT RightArm
					{
						OFFSET -3.27193 1.31331 0.33940
						CHANNELS 3 Zrotation Yrotation Xrotation
						JOINT RightForeArm
						{
							OFFSET -5.30252 -0.00000 0.00000
							CHANNELS 3 Zrotation Yrotation Xrotation
							JOINT RightHand
							{
								OFFSET -3.67875 -0.00000 0.00000
								CHANNELS 3 Zrotation Yrotation Xrotation
								JOINT RightFingerBase
								{
									OFFSET 0 0 0
									CHANNELS 3 Zrotation Yrotation Xrotation
									JOINT RightHandIndex1
									{
										OFFSET -0.59481 -0.00000 0.00000
										CHANNELS 3 Zrotation Yrotation Xrotation
										End Site
										{
											OFFSET -0.47955 -0.00000 0.00000
										}
									}
								}
								JOINT RThumb
								{
									OFFSET 0 0 0
									CHANNELS 3 Zrotation Yrotation Xrotation
									End Site
									{
										OFFSET -0.48687 -0.00000 0.48687
									}
								}
							}
						}
					}
				}
			}
		}
	}
}
MOTION
Frames: 10
Frame Time: .0083333
10.9656 2.6804 6.3690 -181.1960 -1.0985 53.7767 0.0000 0.0000 0.0000 31.8274 21.2638 -63.0946 4.3703 12.6375 38.0264 0.0086 -1.0097 -1.6846 5.0743 13.4669 41.1425 0.0000 0.0000 0.0000 -40.5143 -9.4137 -58.5383 -1.8085 -8.4553 24.1058 0.6978 -15.3268 -10.7061 -0.6743 -5.2510 14.6259 0.1775 -1.0334 28.2329 -4.1753 1.4506 14.8807 -5.0311 2.6268 1.2896 2.7140 -1.0559 -2.7508 -0.1542 -1.2677 12.3265 -0.5798 -0.3332 4.5414 0.0000 -0.0000 0.0000 26.5540 -68.7643 -47.5696 97.1416 -59.8064 -66.1807 -0.0000 0.0000 -1.7470 49.6903 -39.6873 -36.9706 -7.1250 0.0000 -0.0000 6.8742 -21.7739 -8.9822 0.0000 -0.0000 0.0000 3.8146 68.1856 -38.4780 -117.7325 56.8845 -83.7658 0.0000 0.0000 2.1326 -37.3206 -43.4166 27.6532 7.1250 -0.0000 -0.0000 1.7059 -79.9294 -1.3814
10.9593 2.4997 6.2584 -181.2350 -1.2804 56.3625 0.0000 0.0000 0.0000 31.0689 21.6694 -62.5012 4.6779 13.0116 39.4120 0.0112 -1.0002 -1.9031 4.8403 13.2017 40.1283 0.0000 0.0000 0.0000 -39.8432 -9.7455 -58.6560 -2.0449 -8.9590 25.6670 0.7337 -15.1991 -8.5375 -0.9064 -6.0669 16.9785 1.3186 -0.6282 27.7852 -3.9548 1.9629 13.5622 -5.6195 2.6905 0.0432 -0.0758 -1.7927 2.1338 1.4540 -1.8918 13.9433 0.4693 -0.5098 4.2059 0.0000 -0.0000 0.0000 10.2772 -69.4955 -27.1590 94.7033 -59.9162 -64.0720 -0.0000 0.0000 -1.7072 50.9699 -38.2221 -37.3518 -7.1250 0.0000 -0.0000 8.0538 -20.9551 -10.4804 0.0000 -0.0000 0.0000 18.7067 67.6332 -20.8819 -110.8883 58.2854 -77.9857 0.0000 0.0000 4.2811 -39.4183 -43.7406 29.6090 7.1250 -0.0000 -0.0000 -3.2596 -81.0540 2.7134
10.9507 2.3271 6.1554 -182.0890 -0.1997 58.9111 0.0000 0.0000 0.0000 31.7856 22.3735 -62.0416 5.0263 13.4133 40.9360 0.0145 -0.9284 -2.1408 5.0647 13.4563 41.1014 0.0000 0.0000 0.0000 -37.6329 -9.5334 -58.5949 -2.2740 -9.4149 27.1021 0.6934 -14.6300 -7.0006 -0.5859 -4.9008 13.6258 3.2297 -0.7536 27.0380 -3.7723 2.2711 13.6839 -6.5549 2.9534 0.6208 0.0738 -2.2422 0.7694 0.8589 -2.3073 17.0915 0.2023 -0.5992 5.0139 -0.0000 0.0000 0.0000 3.4645 -69.0440 -16.9979 90.8170 -59.9975 -60.7075 -0.0000 0.0000 -2.5463 48.8038 -35.6932 -33.6855 -7.1250 0.0000 -0.0000 7.9112 -17.1189 -9.9675 -0.0000 0.0000 0.0000 26.6170 66.7674 -11.6339 -104.9908 59.1336 -72.9446 0.0000 0.0000 4.9378 -37.6827 -42.6861 27.6400 7.1250 -0.0000 -0.0000 -0.5050 -79.3477 0.4029
10.9478 2.1608 6.0558 -182.9420 1.1333 61.4607 0.0000 0.0000 0.0000 32.7983 22.9546 -61.5451 5.3900 13.8100 42.4817 0.0230 -1.0715 -2.6917 4.9295 13.3040 40.5174 0.0000 0.0000 0.0000 -35.1399 -9.2045 -58.6204 -2.5398 -9.9100 28.6856 0.6687 -14.3090 -5.6862 -0.6087 -4.9939 13.8911 4.5907 -0.9767 26.3594 -3.4702 2.2932 13.8697 -6.9637 3.0475 1.1931 -0.2488 -2.1787 -0.5163 1.2962 -2.1635 19.1990 0.3966 -0.4191 5.8981 0.0000 -0.0000 0.0000 -4.3627 -66.9440 -6.4913 88.5164 -59.9917 -58.7152 -0.0000 0.0000 -3.1826 47.2450 -31.7728 -29.6625 -7.1250 0.0000 -0.0000 8.3886 -11.9980 -10.0454 0.0000 -0.0000 0.0000 34.2832 66.6959 -2.7738 -97.9854 59.7577 -66.9100 0.0000 0.0000 5.9860 -37.3549 -41.4058 26.7867 7.1250 -0.0000 -0.0000 -1.6532 -77.9422 1.2715
10.9485 1.9941 5.9651 -182.8220 0.9691 64.2819 0.0000 0.0000 0.0000 31.9834 22.9378 -60.9438 5.6751 14.1059 43.6632 0.0429 -1.3585 -3.6782 4.8064 13.1624 39.9793 0.0000 0.0000 0.0000 -34.4895 -9.4950 -58.9016 -2.8244 -10.4053 30.2993 0.6494 -14.1132 -4.6556 -0.6567 -5.1833 14.4320 4.0392 -0.9087 25.7744 -3.4912 2.2385 13.7734 -6.6250 2.9714 1.3207 0.3986 -2.2337 -0.9034 0.0711 -1.9317 20.8315 -0.0820 -0.2494 6.4620 0.0000 -0.0000 0.0000 -11.2685 -66.8988 2.5599 81.1092 -59.6992 -52.3082 -0.0000 0.0000 -2.7421 46.1575 -27.0776 -25.3596 -7.1250 0.0000 -0.0000 9.1513 -6.0373 -10.1878 0.0000 -0.0000 0.0000 41.9838 66.1182 5.7988 -90.7282 59.9980 -60.6306 0.0000 0.0000 6.0857 -35.9787 -41.3214 25.6107 7.1250 -0.0000 -0.0000 1.1972 -77.3499 -0.9060
10.9484 1.8528 5.8801 -182.8670 1.1407 66.8866 0.0000 0.0000 0.0000 31.5418 22.9993 -60.1749 5.9448 14.3747 44.7600 0.0573 -1.4497 -4.2488 4.6978 13.0351 39.5001 0.0000 0.0000 0.0000 -33.4413 -9.6702 -58.9103 -3.1113 -10.8731 31.8532 0.6260 -13.9117 -3.7938 -0.5935 -4.9321 13.7151 3.7208 -0.9197 25.3786 -3.3024 2.1363 13.6828 -6.1902 2.8686 1.3612 0.1965 -2.2322 -1.2845 -0.4433 -1.6562 22.3512 -0.1904 -0.0755 7.0181 -0.0000 0.0000 0.0000 -19.2962 -66.6208 11.7572 73.3249 -58.9228 -45.6112 -0.0000 0.0000 -2.2214 46.2490 -22.8732 -22.0981 -7.1250 0.0000 -0.0000 10.2895 -0.9616 -10.6326 -0.0000 0.0000 0.0000 49.5632 65.3765 14.0741 -82.6193 59.7932 -53.6126 0.0000 0.0000 5.8369 -35.2197 -42.5718 25.5280 7.1250 -0.0000 -0.0000 4.8297 -78.2969 -3.7511
10.9650 1.7243 5.8243 -183.2990 2.4232 70.3651 0.0000 0.0000 0.0000 32.1085 23.5725 -60.2087 6.1920 14.6118 45.7474 0.0701 -1.2572 -4.7179 4.4439 12.7287 38.3613 0.0000 0.0000 0.0000 -31.3488 -9.5419 -59.5702 -3.4284 -11.3582 33.4978 0.6366 -14.0653 -3.4433 -1.0056 -6.3810 17.8939 4.4112 -0.8899 24.0054 -2.7847 2.1583 13.5123 -5.9578 2.8181 1.8209 -1.1220 -2.1661 -2.4919 0.8138 -1.4894 24.5880 0.4719 0.1285 8.0026 0.0000 -0.0000 0.0000 -26.6955 -66.4250 19.8275 65.6908 -57.6449 -39.1141 -0.0000 0.0000 -2.7488 45.4157 -16.9102 -16.4426 -7.1250 0.0000 -0.0000 11.1937 6.9288 -9.9584 0.0000 -0.0000 0.0000 56.3777 64.4510 20.8818 -74.3500 59.0540 -46.4898 0.0000 0.0000 5.2599 -33.7444 -42.4441 24.2677 7.1250 -0.0000 -0.0000 7.5482 -77.6087 -5.7584
10.9811 1.6044 5.7716 -183.4880 3.6381 73.9484 0.0000 0.0000 0.0000 32.4589 23.9907 -60.3841 6.4124 14.8164 46.6151 0.0725 -0.8335 -4.8578 4.3887 12.6605 38.1104 0.0000 0.0000 0.0000 -29.3687 -9.5839 -60.4435 -3.7796 -11.8612 35.2426 0.6453 -14.2651 -2.7054 -1.1547 -6.8225 19.1906 5.0996 -0.8133 22.5868 -2.4058 2.2395 13.3913 -5.8867 2.8282 2.3902 -1.2489 -2.2041 -3.6807 1.0621 -1.3971 26.4790 0.6082 0.2955 8.8737 0.0000 -0.0000 0.0000 -33.7824 -66.4695 27.1924 58.5969 -55.9243 -33.1762 -0.0000 0.0000 -4.4059 48.0152 -19.7905 -20.6180 -7.1250 0.0000 -0.0000 12.0701 2.2408 -11.8582 0.0000 -0.0000 0.0000 62.4987 63.2877 26.0783 -66.7409 57.8538 -40.0022 0.0000 0.0000 4.4437 -31.5129 -43.8726 23.0216 7.1250 -0.0000 -0.0000 14.7804 -78.0679 -11.4469
10.9948 1.5107 5.7546 -183.9010 4.9866 78.1156 0.0000 0.0000 0.0000 32.9417 24.9415 -60.7242 6.5688 14.9577 47.2239 0.0668 -0.3021 -4.7828 4.5232 12.8258 38.7199 0.0000 0.0000 0.0000 -27.5269 -8.9534 -61.2113 -3.9199 -12.0530 35.9199 0.6922 -14.8775 -2.1860 -1.1901 -6.9227 19.4865 5.8655 -0.4866 20.6501 -1.9685 2.5145 12.9924 -5.8169 2.8769 2.9510 0.2284 -2.0462 -1.6729 0.0009 -1.1262 24.5432 0.0074 0.4001 7.8187 0.0000 -0.0000 0.0000 -41.7568 -66.2519 34.7455 52.0847 -53.8025 -27.8479 -0.0000 0.0000 -6.7738 47.8484 -20.0480 -20.7420 -7.1250 0.0000 -0.0000 11.9098 1.9735 -11.7520 0.0000 -0.0000 0.0000 68.1319 61.6100 30.3718 -59.8643 56.2737 -34.2282 0.0000 0.0000 2.8820 -31.5089 -44.0638 23.0898 7.1250 -0.0000 -0.0000 15.2641 -78.2378 -11.8773
11.0052 1.4594 5.7588 -184.1430 6.4085 82.5769 0.0000 0.0000 0.0000 33.3388 26.0662 -61.2467 6.6825 15.0586 47.6629 0.0575 0.1325 -4.5788 3.9158 12.0476 35.9004 0.0000 0.0000 0.0000 -26.0400 -7.9414 -61.5264 -3.8918 -12.0151 35.7853 0.7384 -15.4733 -1.7227 -1.1174 -6.7151 18.8740 6.5453 -0.0934 18.2788 -1.4197 2.7316 12.3757 -5.5496 2.8430 3.5000 0.9197 -2.1132 -0.3252 -0.9442 -1.0035 23.8575 -0.4087 0.4518 7.3380 -0.0000 0.0000 0.0000 -50.1279 -65.5221 41.9365 46.1292 -51.3098 -23.1168 -0.0000 0.0000 -10.0820 43.9658 -13.5615 -12.7444 -7.1250 0.0000 -0.0000 11.0013 11.7082 -8.7060 -0.0000 0.0000 0.0000 73.2762 59.7894 34.0581 -52.9446 54.1162 -28.5432 0.0000 0.0000 0.6624 -32.2571 -45.6188 24.2786 7.1250 -0.0000 -0.0000 18.3944 -79.9039 -14.9524
